<svg width="200.689" height="234.773" fill="none" xmlns="http://www.w3.org/2000/svg">
  <rect style="fill:#fff;stroke:#2c1aff;stroke-width:3;stroke-dasharray:none;stroke-opacity:1" width="197.689" height="231.773" x="1.5" y="1.5" ry="8.978"/>
  <path d="M109.019 205.635h60.528c.99 0 1.793-.803 1.793-1.795v-22.889c0-.992-.802-1.795-1.793-1.795h-43.042c-7.925 0-14.348-6.43-14.348-14.361v-25.133c0-7.932 6.423-14.362 14.348-14.362h62.77m0 14.362h-62.322c-.99 0-1.793.803-1.793 1.795v21.991c0 .992.802 1.795 1.793 1.795h43.94c7.923 0 14.347 6.43 14.347 14.362v25.582c0 7.932-6.424 14.361-14.348 14.361H108.57M92.43 114.978V31.052c0-7.436-6.022-13.464-13.451-13.464H31.453c-7.429 0-13.45 6.028-13.45 13.464v83.926m60.527 0V33.745c0-.992-.802-1.795-1.793-1.795h-43.49c-.991 0-1.794.803-1.794 1.795v81.233M150.268 58.878h32.73c.99 0 1.793.803 1.793 1.795v48.47c0 .992-.802 1.795-1.793 1.795h-59.183c-5.943 0-10.761-4.822-10.761-10.77V28.358c0-5.949 4.818-10.771 10.76-10.771h65.012m0 14.362h-60.528c-.99 0-1.793.803-1.793 1.795v62.383c0 .992.802 1.795 1.793 1.795h41.697c.991 0 1.794-.803 1.794-1.795V73.239c0-.991-.803-1.795-1.794-1.795h-19.727M100.052 125.3H76.289c-7.924 0-14.348 6.43-14.348 14.362v23.786c0 .992-.803 1.795-1.793 1.795H51.18c-.99 0-1.794-.803-1.794-1.795v-23.786c0-7.932-6.423-14.362-14.347-14.362H11.725m0 80.335h22.418c.99 0 1.794-.803 1.794-1.795v-62.383c0-.992-.803-1.795-1.794-1.795H11.725m88.327 79.886H76.289c-7.924 0-14.348-6.43-14.348-14.361V180.95c0-.992-.803-1.795-1.793-1.795H51.18c-.99 0-1.794.803-1.794 1.795v24.236c0 7.932-6.423 14.361-14.347 14.361H11.725m88.327-13.913H77.634c-.99 0-1.794-.803-1.794-1.795v-62.383c0-.992.803-1.795 1.794-1.795h22.418" stroke="#2c1aff" stroke-width="8"/>
</svg>
