<?xml version="1.0" encoding="UTF-8"?>
<svg width="12.104" height="12.029" version="1.1" viewBox="0 0 3.2026 3.1828" xml:space="preserve" xmlns="http://www.w3.org/2000/svg" xmlns:cc="http://creativecommons.org/ns#" xmlns:dc="http://purl.org/dc/elements/1.1/" xmlns:rdf="http://www.w3.org/1999/02/22-rdf-syntax-ns#"><metadata><rdf:RDF><cc:Work rdf:about=""><dc:format>image/svg+xml</dc:format><dc:type rdf:resource="http://purl.org/dc/dcmitype/StillImage"/></cc:Work></rdf:RDF></metadata><g transform="translate(-.51746 -.51775)" display="none"><rect transform="translate(-.00093543 -.00093566)" x=".00093545" y=".00094775" width="4.2333" height="4.2333" display="inline" fill="none"/><path transform="translate(-.00093543 -.00093566)" d="m0.26552 0.26552v3.7042h3.7042v-3.7042z" display="inline" fill="#d7e3f4" stroke="#e6e6e6" stroke-width=".010769"/><g fill="none"><g stroke="#000" stroke-width=".0026458"><g stroke-linecap="round"><rect transform="translate(-.00093543 -.00093566)" x=".79469" y=".26552" width="2.6458" height="3.7042" display="inline" opacity=".869" style="paint-order:stroke fill markers"/><rect transform="translate(-.00093543 -.00093566)" x=".5301" y=".5301" width="3.175" height="3.175" display="inline" opacity=".869" style="paint-order:stroke fill markers"/><rect transform="translate(-.00093543 -.00093566)" x=".26552" y=".79469" width="3.7042" height="2.6458" display="inline" opacity=".869" style="paint-order:stroke fill markers"/></g><path transform="translate(-.00093543 -.00093566)" d="m9.3544e-4 4.2343 4.2333-4.2333" display="inline"/><path transform="translate(-.00093543 -.00093566)" d="m4.2343 4.2343-4.2333-4.2333" display="inline"/></g><circle transform="translate(-.00093543 -.00093566)" cx="2.1174" cy="2.1088" r="1.8389" display="inline" opacity=".869" stroke="#1a1a1a" stroke-linecap="round" stroke-width=".0029246" style="paint-order:stroke fill markers"/><circle transform="translate(-.00093543 -.00093566)" cx="2.1119" cy="1.8389" r=".79902" display="inline" opacity=".869" stroke="#1a1a1a" stroke-linecap="round" stroke-width=".0012708" style="paint-order:stroke fill markers"/></g></g><rect x=".061447" y=".061447" width="3.0798" height="3.0599" fill="#fff" stroke="#2c1aff" stroke-linecap="round" stroke-linejoin="round" stroke-width=".12289" style="paint-order:stroke fill markers"/><g fill="none" stroke="#2c1aff"><path d="m0.80843 2.2703h1.1818c0.019352 0 0.035018-0.016582 0.035018-0.037038v-0.47225c0-0.02046-0.015673-0.037039-0.035018-0.037039h-0.8404c-0.15472 0-0.28013-0.13266-0.28013-0.29632v-0.51855c0-0.16366 0.12542-0.29632 0.28013-0.29632h1.2256m0 0.29632h-1.2168c-0.019352 0-0.035017 0.016582-0.035017 0.037039v0.45373c0 0.020471 0.015673 0.037038 0.035017 0.037038h0.85791c0.15472 0 0.28013 0.13266 0.28013 0.29632v0.52781c0 0.16366-0.12542 0.29631-0.28013 0.29631h-1.2168" stroke-width=".16057"/><path d="m-1.8744 0.52141v-0.87893c0-0.077875-0.06228-0.141-0.13911-0.141h-0.49152c-0.076828 0-0.13911 0.06313-0.13911 0.141v0.87893m0.62599 0v-0.85073c0-0.010384-0.00831-0.0188-0.018549-0.0188h-0.44979c-0.010244 0-0.018549 0.008416-0.018549 0.0188v0.85073" stroke-width=".083258"/><path d="m-0.9534-0.065496h0.34259c0.010373 0 0.018773 0.008321 0.018773 0.018587v0.50184c0 0.010267-0.00839 0.018587-0.018773 0.018587h-0.61948c-0.062201 0-0.11263-0.049932-0.11263-0.11152v-0.74347c0-0.061591 0.050434-0.11152 0.11263-0.11152h0.68049m0 0.14869h-0.63356c-0.010373 0-0.018773 0.00832-0.018773 0.018586v0.64589c0 0.010267 0.00839 0.018587 0.018773 0.018587h0.43645c0.010373 0 0.018773-0.00833 0.018773-0.018587v-0.23698c0-0.010267-0.00839-0.018587-0.018773-0.018587h-0.20649" stroke-width=".083282"/><path d="m-1.5925 0.86251h-0.24433c-0.081471 0-0.14752 0.066109-0.14752 0.14767v0.24457c0 0.0102-0.00826 0.018458-0.018441 0.018458h-0.092199c-0.010184 0-0.018441-0.00826-0.018441-0.018458v-0.24457c0-0.081558-0.066047-0.14767-0.14752-0.14767h-0.23972m0 0.826h0.2305c0.010184 0 0.01844-0.00826 0.01844-0.018458v-0.64142c0-0.010201-0.00826-0.018458-0.01844-0.018458h-0.2305m0.90816 0.82139h-0.24433c-0.081472 0-0.14752-0.066108-0.14752-0.14766v-0.24918c0-0.010195-0.00826-0.018458-0.01844-0.018458h-0.0922c-0.010184 0-0.018441 0.00826-0.018441 0.018458v0.24918c0 0.081558-0.066046 0.14766-0.14752 0.14766h-0.23972m0.90816-0.14305h-0.2305c-0.010185 0-0.018441-0.00827-0.018441-0.018458v-0.64142c0-0.010201 0.00826-0.018458 0.018441-0.018458h0.2305" stroke-width=".082256"/></g></svg>
