<svg viewBox="0 0 2.972 2.379" height="8.991" width="11.233" xml:space="preserve" xmlns="http://www.w3.org/2000/svg">
    <path fill-rule="evenodd" clip-rule="evenodd" d="M3.043 2.117a.132.132 0 0 1-.133-.133V.452l-.303.303A.132.132 0 1 1 2.42.568l.53-.53a.132.132 0 0 1 .186 0l.53.53a.132.132 0 0 1-.188.187L3.175.452v1.532c0 .073-.06.133-.132.133z" fill="#db3b4b" style="stroke-width:.264583" transform="translate(-.732)"/>
    <path style="opacity:1;fill:#edf3ff;fill-opacity:1;stroke:none;stroke-width:.471873;stroke-linecap:square;stroke-linejoin:bevel;stroke-dasharray:none;stroke-opacity:1;paint-order:markers stroke fill" d="m1.652 1.036-.556 1.262h1.1z" transform="translate(-.732)"/>
    <path style="opacity:1;fill:#3574f0;fill-opacity:1;stroke:none;stroke-width:.264583;stroke-linecap:square;stroke-linejoin:bevel;stroke-dasharray:none;stroke-opacity:1;paint-order:stroke fill markers" d="m-6.49-3.11.327-.61.326-.61.365.588.364.588-.69.022z" transform="matrix(.33817 .0111 -.01127 .33312 2.875 3.146)"/>
    <path style="opacity:1;fill:#3574f0;fill-opacity:1;stroke:none;stroke-width:.364082;stroke-linecap:square;stroke-linejoin:bevel;stroke-dasharray:none;stroke-opacity:1;paint-order:markers stroke fill" d="m1.68.729-.475.825-.473.825.951-.003.951-.002-.477-.823Zm.003.61.244.424.243.423h-.489l-.489-.001.246-.423z" transform="translate(-.732)"/>
</svg>
