<?xml version="1.0" encoding="UTF-8" standalone="no"?>
<!-- Created with Inkscape (http://www.inkscape.org/) -->

<svg
   width="16px"
   height="16px"
   viewBox="0 0 4.2333332 4.2333335"
   version="1.1"
   id="svg5"
   xml:space="preserve"
   inkscape:version="1.2.1 (9c6d41e, 2022-07-14)"
   sodipodi:docname="ngxs.svg"
   xmlns:inkscape="http://www.inkscape.org/namespaces/inkscape"
   xmlns:sodipodi="http://sodipodi.sourceforge.net/DTD/sodipodi-0.dtd"
   xmlns="http://www.w3.org/2000/svg"
   xmlns:svg="http://www.w3.org/2000/svg"><sodipodi:namedview
     id="namedview7"
     pagecolor="#ffffff"
     bordercolor="#000000"
     borderopacity="0.25"
     inkscape:showpageshadow="2"
     inkscape:pageopacity="0.0"
     inkscape:pagecheckerboard="0"
     inkscape:deskcolor="#d1d1d1"
     inkscape:document-units="mm"
     showgrid="false"
     inkscape:zoom="39.656001"
     inkscape:cx="8.7628604"
     inkscape:cy="8.2585231"
     inkscape:window-width="1920"
     inkscape:window-height="1027"
     inkscape:window-x="0"
     inkscape:window-y="25"
     inkscape:window-maximized="1"
     inkscape:current-layer="layer1" /><defs
     id="defs2" /><g
     inkscape:label="Layer 1"
     inkscape:groupmode="layer"
     id="layer1"
     transform="translate(-93.067386,-66.142032)"><rect
       style="fill:#ffffff;fill-opacity:1;stroke:#2c1aff;stroke-width:0.058511;stroke-dasharray:none;stroke-opacity:1"
       id="rect473"
       width="4.1748223"
       height="4.1748228"
       x="93.096642"
       y="66.171288"
       ry="0.16171321" /><path
       d="m 95.300057,69.8433 h 1.091422 c 0.01787,0 0.03234,-0.01449 0.03234,-0.03237 v -0.412722 c 0,-0.01788 -0.01447,-0.03237 -0.03234,-0.03237 h -0.776122 c -0.142887,0 -0.258707,-0.115934 -0.258707,-0.258963 V 68.65369 c 0,-0.143029 0.11582,-0.258964 0.258707,-0.258964 h 1.131845 m 0,0.258964 h -1.12376 c -0.01787,0 -0.03234,0.01448 -0.03234,0.03237 v 0.396537 c 0,0.01789 0.01447,0.03237 0.03234,0.03237 h 0.792291 c 0.142887,0 0.258708,0.115934 0.258708,0.258963 v 0.461278 c 0,0.143029 -0.115821,0.258963 -0.258708,0.258963 h -1.12376"
       stroke="#2c1aff"
       stroke-width="0.144253"
       id="path132"
       sodipodi:nodetypes="cssssssssccssssssssc"
       style="fill:none" /><path
       d="m 95.000927,68.208594 v -1.513316 c 0,-0.134083 -0.108588,-0.242778 -0.242538,-0.242778 H 93.90142 c -0.13395,0 -0.242538,0.108695 -0.242538,0.242778 v 1.513316 m 1.091422,0 v -1.46476 c 0,-0.01788 -0.01448,-0.03237 -0.03234,-0.03237 h -0.784207 c -0.01786,0 -0.03234,0.01449 -0.03234,0.03237 v 1.46476"
       stroke="#2c1aff"
       stroke-width="0.144253"
       id="path134"
       sodipodi:nodetypes="cssssccssssc"
       style="fill:none" /><path
       d="m 96.043841,67.19702 h 0.590177 c 0.01787,0 0.03234,0.01449 0.03234,0.03237 v 0.874001 c 0,0.01788 -0.01447,0.03237 -0.03234,0.03237 h -1.067169 c -0.107153,0 -0.19403,-0.08696 -0.19403,-0.194222 v -1.294816 c 0,-0.107266 0.08688,-0.194223 0.19403,-0.194223 h 1.172268 m 0,0.258964 h -1.091422 c -0.01787,0 -0.03234,0.01449 -0.03234,0.03237 v 1.124871 c 0,0.01788 0.01447,0.03237 0.03234,0.03237 h 0.751869 c 0.01787,0 0.03234,-0.01449 0.03234,-0.03237 v -0.412722 c 0,-0.01788 -0.01447,-0.03237 -0.03234,-0.03237 h -0.355723"
       stroke="#2c1aff"
       stroke-width="0.144253"
       id="path136"
       sodipodi:nodetypes="cssssssssccssssssssc"
       style="fill:none" /><path
       d="m 95.138365,68.394724 h -0.428484 c -0.142879,0 -0.258707,0.115935 -0.258707,0.258964 v 0.428907 c 0,0.01789 -0.01448,0.03237 -0.03234,0.03237 h -0.161692 c -0.01786,0 -0.03234,-0.01449 -0.03234,-0.03237 v -0.428907 c 0,-0.143029 -0.115827,-0.258964 -0.258708,-0.258964 h -0.420399 m 0,1.448576 h 0.40423 c 0.01786,0 0.03234,-0.01449 0.03234,-0.03237 v -1.124871 c 0,-0.01789 -0.01448,-0.03237 -0.03234,-0.03237 h -0.40423 m 1.592667,1.440482 h -0.428484 c -0.142879,0 -0.258707,-0.115934 -0.258707,-0.258963 v -0.437 c 0,-0.01788 -0.01448,-0.03237 -0.03234,-0.03237 h -0.161692 c -0.01786,0 -0.03234,0.01449 -0.03234,0.03237 v 0.437 c 0,0.143029 -0.115827,0.258963 -0.258708,0.258963 h -0.420399 m 1.592667,-0.25087 h -0.40423 c -0.01786,0 -0.03234,-0.01449 -0.03234,-0.03237 V 68.68606 c 0,-0.01789 0.01448,-0.03237 0.03234,-0.03237 h 0.40423"
       stroke="#2c1aff"
       stroke-width="0.144253"
       id="path138"
       sodipodi:nodetypes="cssssssssccssssccssssssssccssssc"
       style="fill:none" /></g></svg>
