<svg viewBox="0 0 3.614 2.607" height="9.855" width="13.657" xml:space="preserve" xmlns="http://www.w3.org/2000/svg">
    <path fill-rule="evenodd" clip-rule="evenodd" d="M2.952 2.361a.132.132 0 0 1-.132-.132V.696L2.516 1A.132.132 0 1 1 2.33.812l.53-.529a.132.132 0 0 1 .187 0l.529.53a.132.132 0 0 1-.187.186L3.084.696V2.23c0 .073-.059.132-.132.132z" fill="#db3b4b" style="stroke-width:.264583"/>
    <path style="fill:#edf3ff;fill-opacity:1;stroke:none;stroke-width:.528385;stroke-linecap:square;stroke-linejoin:bevel;stroke-dasharray:none;stroke-opacity:1;paint-order:markers stroke fill" d="M1.746 1.134 1.111 2.52h1.258Z"/>
    <path style="fill:#3574f0;fill-opacity:1;stroke:none;stroke-width:.264583;stroke-linecap:square;stroke-linejoin:bevel;stroke-dasharray:none;stroke-opacity:1;paint-order:stroke fill markers" d="m-6.49-3.11.327-.61.326-.61.365.588.364.588-.69.022z" transform="matrix(.37087 .01217 -.01236 .36533 3.865 3.449)"/>
    <path style="fill:#3574f0;fill-opacity:1;stroke:none;stroke-width:.399286;stroke-linecap:square;stroke-linejoin:bevel;stroke-dasharray:none;stroke-opacity:1;paint-order:markers stroke fill" d="m1.75.798-.52.905-.518.904 1.042-.002 1.044-.003-.524-.902Zm.004.669.268.465.267.464h-.536l-.536-.002.268-.463Z"/>
    <path style="fill:#edf3ff;fill-opacity:1;stroke:none;stroke-width:.529754;stroke-linecap:square;stroke-linejoin:bevel;stroke-dasharray:none;stroke-opacity:1;paint-order:markers stroke fill" d="M1.142.556.502 1.94h.225L1.304.913Z"/>
    <path style="fill:#3574f0;fill-opacity:1;stroke:none;stroke-width:.449378;stroke-linecap:square;stroke-linejoin:bevel;stroke-dasharray:none;stroke-opacity:1;paint-order:markers stroke fill" d="M1.169 0 .584 1.018 0 2.036l.674-.001.137-.238H.568l.303-.522.303-.522.118.206.215-.377Z"/>
</svg>
