<svg viewBox="0 0 3.186 2.637" height="9.966" width="12.042" xml:space="preserve" xmlns="http://www.w3.org/2000/svg">
    <path fill-rule="evenodd" clip-rule="evenodd" d="M2.525 2.117a.132.132 0 0 1-.133-.133V.452L2.09.755a.132.132 0 1 1-.187-.187l.529-.53a.132.132 0 0 1 .187 0l.53.53a.132.132 0 0 1-.188.187L2.657.452v1.532c0 .073-.06.133-.132.133z" fill="#db3b4b" style="stroke-width:.264583"/>
    <path style="color:#000;fill:#3574f0;fill-opacity:1;stroke-width:1.04816;stroke-linecap:round;stroke-linejoin:round;paint-order:stroke fill markers" d="M1.164.678A.05.051 89.747 0 0 1.118.7l-.556.93-.556.93a.05.051 89.747 0 0 .044.074l1.111.002h1.114a.05.051 89.747 0 0 .045-.077l-.555-.93-.558-.928a.05.051 89.747 0 0-.043-.024z"/>
    <path style="color:#000;fill:#edf3ff;fill-opacity:1;stroke-width:.61083;stroke-linecap:round;stroke-linejoin:round;paint-order:stroke fill markers" d="M1.162 1.159a.03.028 89.747 0 0-.025.014l-.307.572-.307.57a.03.028 89.747 0 0 .024.046l.614.001h.616a.03.028 89.747 0 0 .025-.046l-.307-.572-.309-.57a.03.028 89.747 0 0-.024-.015z"/>
    <path style="color:#000;fill:#3574f0;fill-opacity:1;stroke-width:.261116;stroke-linecap:round;stroke-linejoin:round;paint-order:stroke fill markers" d="M1.179 1.597a.013.012 89.747 0 0-.011.007l-.131.244-.131.244a.013.012 89.747 0 0 .01.02h.526a.013.012 89.747 0 0 .01-.02l-.131-.244-.132-.244a.013.012 89.747 0 0-.01-.007z"/>
</svg>
