<svg viewBox="0 0 2.664 2.886" height="10.907" width="10.067" xml:space="preserve" xmlns="http://www.w3.org/2000/svg">
    <circle style="opacity:1;fill:#2c1aff;fill-opacity:.120805;stroke:#2c1aff;stroke-width:.176209;stroke-linecap:square;stroke-linejoin:bevel;stroke-dasharray:none;stroke-opacity:1;paint-order:stroke fill markers" cx="1.311" cy="1.575" r="1.222"/>
    <path d="M.735 2.057h.842a.025.025 0 0 0 .025-.025v-.319a.025.025 0 0 0-.025-.025H.978a.2.2 0 0 1-.2-.2V1.14c0-.11.09-.2.2-.2h.873m0 .2H.984a.025.025 0 0 0-.025.025v.306c0 .014.011.025.025.025h.611c.11 0 .2.09.2.2v.356a.2.2 0 0 1-.2.2H.73" stroke="#2c1aff" stroke-width=".111" style="fill:none"/>
    <g fill="#6e6e6e" fill-rule="evenodd" style="fill:#db5861;fill-opacity:1">
        <path style="fill:#db5861;fill-opacity:1" d="M1 4h11v2H1z" transform="matrix(0 .12093 -.12093 0 2.67 0)"/>
        <g style="fill:#db5861;fill-opacity:1">
            <path transform="matrix(.0855 .0855 -.0855 .0855 2.29 -.158)" style="fill:#db5861;fill-opacity:1" d="M-.389 2.24h7v1.8h-7z"/>
            <path transform="matrix(.0855 .0855 -.0855 .0855 2.16 -.473)" style="fill:#db5861;fill-opacity:1" d="M2.211 3.317h1.8v7h-1.8z"/>
        </g>
    </g>
</svg>
