<svg viewBox="0 0 2.902 2.363" height="8.931" width="10.968" xml:space="preserve" xmlns="http://www.w3.org/2000/svg">
    <path fill-rule="evenodd" clip-rule="evenodd" d="M2.24 2.117a.132.132 0 0 1-.132-.133V.452l-.303.303a.132.132 0 1 1-.187-.187l.529-.53a.132.132 0 0 1 .187 0l.53.53a.132.132 0 0 1-.188.187L2.373.452v1.532c0 .073-.06.133-.133.133z" fill="#db3b4b" style="stroke-width:.264583"/>
    <path style="fill:#25324d;fill-opacity:1;stroke:none;stroke-width:.528385;stroke-linecap:square;stroke-linejoin:bevel;stroke-dasharray:none;stroke-opacity:1;paint-order:markers stroke fill" d="M1.035.89.399 2.275h1.258Z"/>
    <path style="fill:#548af7;fill-opacity:1;stroke:none;stroke-width:.264583;stroke-linecap:square;stroke-linejoin:bevel;stroke-dasharray:none;stroke-opacity:1;paint-order:stroke fill markers" d="m-6.49-3.11.327-.61.326-.61.365.588.364.588-.69.022z" transform="matrix(.37087 .01217 -.01236 .36533 3.153 3.204)"/>
    <path style="fill:#548af7;fill-opacity:1;stroke:none;stroke-width:.399286;stroke-linecap:square;stroke-linejoin:bevel;stroke-dasharray:none;stroke-opacity:1;paint-order:markers stroke fill" d="m1.039.554-.52.904L0 2.363l1.043-.003 1.043-.003-.524-.902Zm.003.669.268.464.267.465-.536-.001-.536-.001.269-.464Z"/>
</svg>
