<svg viewBox="0 0 3.186 2.637" height="9.966" width="12.042" xml:space="preserve" xmlns="http://www.w3.org/2000/svg">
    <path fill-rule="evenodd" clip-rule="evenodd" d="M2.525 2.117a.132.132 0 0 1-.133-.133V.452L2.09.755a.132.132 0 1 1-.187-.187l.529-.53a.132.132 0 0 1 .187 0l.53.53a.132.132 0 0 1-.188.187L2.657.452v1.532c0 .073-.06.133-.132.133z" fill="#db3b4b" style="stroke-width:.264583"/>
    <path style="color:#000;fill:#548af7;fill-opacity:1;stroke-width:1.04816;stroke-linecap:round;stroke-linejoin:round;paint-order:stroke fill markers" d="M-1.28.942a.05.051 90 0 0-.046.023l-.56.928-.56.928a.05.051 90 0 0 .044.073l1.111.007 1.114.004a.05.051 90 0 0 .045-.075l-.55-.933-.554-.93A.05.051 90 0 0-1.28.942z" transform="rotate(-.253 -59.804 -552.062)"/>
    <path style="color:#000;fill:#25324d;fill-opacity:1;stroke-width:.61083;stroke-linecap:round;stroke-linejoin:round;paint-order:stroke fill markers" d="M-1.283 1.423a.028.03 0 0 0-.026.014l-.31.57-.309.57a.028.03 0 0 0 .024.045l.615.004.615.003a.028.03 0 0 0 .025-.047l-.304-.572-.306-.572a.028.03 0 0 0-.024-.015z" transform="rotate(-.253 -59.804 -552.062)"/>
    <path style="color:#000;fill:#548af7;fill-opacity:1;stroke-width:.261116;stroke-linecap:round;stroke-linejoin:round;paint-order:stroke fill markers" d="M-1.268 1.862a.012.013 0 0 0-.011.006l-.133.243-.132.244a.012.013 0 0 0 .01.02l.263.001.263.001a.012.013 0 0 0 .01-.02l-.13-.245-.13-.244a.012.013 0 0 0-.01-.006z" transform="rotate(-.253 -59.804 -552.062)"/>
</svg>
